<?xml version="1.0" encoding="utf-8"?>
<!-- Generator: Adobe Illustrator 25.3.1, SVG Export Plug-In . SVG Version: 6.00 Build 0)  -->
<svg version="1.1" id="Warstwa_1" xmlns="http://www.w3.org/2000/svg" xmlns:xlink="http://www.w3.org/1999/xlink" x="0px" y="0px"
	 viewBox="0 0 113.4 114.3" style="enable-background:new 0 0 113.4 114.3;" xml:space="preserve">
<style type="text/css">
	.st0{fill:#F15A24;}
	.st1{fill:#29ABE2;}
	.st2{fill:#29ABE2;stroke:#FFFFFF;stroke-width:0.75;stroke-miterlimit:10;}
</style>
<g>
	<polygon class="st1" points="77.8,57.1 81.9,53.1 81.9,32.1 56.4,57.1 81.9,82.2 81.9,61.1 	"/>
	<path d="M62.6,64.7c-1.7,1.4-3.8,2.2-6.2,2.2c-5.4,0-9.8-4.4-9.8-9.8s4.4-9.8,9.8-9.8c2.4,0,4.5,0.8,6.2,2.2L73.4,39
		c-4.5-4.2-10.4-6.7-17-6.7c-13.8,0-24.9,11.1-24.9,24.9C31.5,70.9,42.6,82,56.4,82c6.6,0,12.5-2.6,17-6.7L62.6,64.7z"/>
</g>
</svg>
